<?xml version="1.0" standalone="no"?>
<!DOCTYPE svg PUBLIC "-//W3C//DTD SVG 20010904//EN"
 "http://www.w3.org/TR/2001/REC-SVG-20010904/DTD/svg10.dtd">
<svg version="1.0" xmlns="http://www.w3.org/2000/svg"
 width="230.000000pt" height="230.000000pt" viewBox="0 0 230.000000 230.000000"
 preserveAspectRatio="xMidYMid meet">

<g transform="translate(0.000000,230.000000) scale(0.100000,-0.100000)"
fill="#00f" stroke="none">
<path d="M662 2078 c-9 -9 -12 -75 -12 -235 l0 -223 35 0 35 0 0 195 0 195
470 0 470 0 0 -40 c0 -39 1 -40 35 -40 l35 0 0 68 c0 40 -5 73 -12 80 -17 17
-1039 17 -1056 0z"/>
<path d="M1026 1854 c-13 -12 -16 -41 -16 -145 0 -125 1 -130 23 -138 14 -6
23 -5 24 3 12 91 40 216 48 216 6 0 29 18 50 40 l39 40 -76 0 c-56 0 -81 -4
-92 -16z"/>
<path d="M1661 1831 l34 -39 168 -1 167 -1 0 -650 0 -650 -470 0 c-289 0 -470
4 -470 9 0 11 -58 -5 -74 -20 -6 -5 -5 -18 2 -34 l12 -25 523 0 c393 0 526 3
535 12 9 9 12 181 12 715 0 684 -1 703 -19 713 -12 6 -106 10 -237 10 l-216 0
33 -39z"/>
<path d="M1294 1836 c-63 -29 -120 -95 -139 -160 -9 -28 -15 -90 -15 -142 l0
-91 -36 -6 c-20 -4 -47 -16 -60 -28 -24 -22 -24 -26 -24 -205 0 -179 1 -184
24 -211 l24 -28 323 -3 c231 -2 331 1 351 9 54 22 58 37 58 230 0 163 -2 178
-21 203 -13 17 -34 28 -60 32 l-39 7 0 86 c0 155 -47 250 -149 303 -71 37
-162 39 -237 4z m194 -65 c45 -23 87 -66 101 -104 6 -16 11 -73 11 -128 l0
-99 -197 0 -196 0 6 104 c6 112 19 150 65 194 58 54 143 67 210 33z m-42 -449
c34 -22 42 -76 19 -125 -8 -18 -15 -50 -17 -71 -6 -79 -70 -75 -76 4 -2 24
-10 53 -18 64 -21 30 -18 92 6 116 20 20 65 26 86 12z"/>
<path d="M790 1815 c0 -12 15 -15 79 -15 61 0 80 3 85 15 4 13 -8 15 -79 15
-69 0 -85 -3 -85 -15z"/>
<path d="M803 1694 c-7 -3 -13 -12 -13 -20 0 -11 18 -14 80 -14 70 0 80 2 80
18 0 15 -10 18 -67 19 -38 1 -74 -1 -80 -3z"/>
<path d="M1750 1625 c0 -13 16 -15 102 -13 70 2 103 7 106 16 3 9 -22 12 -102
12 -89 0 -106 -3 -106 -15z"/>
<path d="M565 1534 c-201 -28 -265 -47 -315 -94 -30 -28 -30 -29 -30 -128 0
-99 1 -101 30 -131 71 -70 328 -113 555 -91 65 6 122 13 126 16 5 3 9 68 9
145 0 147 4 164 48 211 14 15 23 30 20 33 -23 24 -349 52 -443 39z"/>
<path d="M1803 1488 c25 -20 141 -25 152 -7 10 16 7 17 -87 21 -85 3 -87 2
-65 -14z"/>
<path d="M1880 1350 c0 -18 5 -21 38 -18 25 2 37 8 37 18 0 10 -12 16 -37 18
-33 3 -38 0 -38 -18z"/>
<path d="M1880 1210 c0 -18 5 -21 38 -18 25 2 37 8 37 18 0 10 -12 16 -37 18
-33 3 -38 0 -38 -18z"/>
<path d="M220 1014 c0 -77 2 -87 25 -110 66 -66 208 -97 440 -97 182 0 272 13
362 53 l48 21 -39 14 c-48 17 -92 59 -108 101 -11 30 -14 32 -42 26 -17 -4
-123 -7 -236 -7 -221 1 -291 11 -397 60 l-53 24 0 -85z"/>
<path d="M1880 1076 c0 -12 11 -16 41 -16 52 0 48 24 -4 28 -28 2 -37 -1 -37
-12z"/>
<path d="M1830 935 c-12 -14 -6 -16 56 -13 81 4 89 22 11 26 -40 2 -57 -1 -67
-13z"/>
<path d="M220 737 c0 -100 13 -123 89 -156 215 -92 675 -73 799 34 37 32 37
33 41 119 1 47 1 86 -2 86 -3 0 -21 -9 -39 -19 -167 -98 -650 -101 -838 -6
l-50 25 0 -83z"/>
<path d="M1220 795 c0 -13 45 -15 367 -13 282 2 367 6 371 16 3 9 -75 12 -367
12 -324 0 -371 -2 -371 -15z"/>
<path d="M1220 660 c0 -20 4 -20 368 -18 318 3 367 5 367 18 0 13 -49 15 -367
18 -364 2 -368 2 -368 -18z"/>
<path d="M650 429 c0 -23 -5 -32 -21 -36 -12 -4 -22 -17 -26 -34 l-5 -29 -109
0 -109 0 0 -35 0 -35 111 0 c85 0 114 -3 125 -15 20 -20 104 -20 130 0 14 11
48 14 132 15 l112 0 0 35 0 35 -115 0 -115 0 0 26 c0 17 -6 28 -20 31 -15 4
-20 14 -20 39 0 32 -2 34 -35 34 -32 0 -35 -2 -35 -31z"/>
</g>
</svg>
